<svg width="107" height="118" viewBox="0 0 107 118" fill="none" xmlns="http://www.w3.org/2000/svg">
<path fill-rule="evenodd" clip-rule="evenodd" d="M10.0358 0.822345L9.10619 1.61021L8.99654 8.09317C8.86899 15.6218 9.08267 16.7923 10.7268 17.5658C11.7193 18.0325 11.9075 18.0312 12.85 17.5505C14.4203 16.7495 14.6356 15.5238 14.5134 8.09284L14.4067 1.61021L13.4771 0.822018C12.2978 -0.177597 11.2151 -0.177597 10.0358 0.822345ZM25.2747 0.822345L24.3452 1.61021L24.2385 8.29217C24.0997 16.976 24.475 17.9877 27.7007 17.624C28.401 17.5452 28.8072 17.2152 29.2408 16.3731C29.7596 15.3663 29.8189 14.415 29.7378 8.41994L29.6457 1.61021L28.7161 0.822345C27.5367 -0.177597 26.4541 -0.177597 25.2747 0.822345ZM40.5137 0.822018L39.5841 1.61021L39.4775 8.09284C39.4099 12.204 39.5053 15.0235 39.7385 15.7993C40.3948 17.9818 43.1312 18.5514 44.3251 16.7541C44.8071 16.0283 44.8846 14.9225 44.8846 8.76143V1.61152L43.9551 0.822671C42.776 -0.177598 41.6934 -0.177924 40.5137 0.822018ZM55.7527 0.822345L54.8231 1.61021L54.7168 8.47255C54.6283 14.1624 54.6972 15.5012 55.1206 16.3087C55.7924 17.5903 57.1795 18.073 58.5527 17.5037C60.1365 16.8466 60.3605 15.5934 60.2333 8.09317L60.1236 1.61021L59.194 0.822345C58.0147 -0.177597 56.932 -0.177597 55.7527 0.822345ZM70.9916 0.822345L70.0621 1.61021L69.9607 8.48268C69.8752 14.2853 69.9421 15.5127 70.3907 16.3682C71.1175 17.754 72.3916 18.2008 73.7698 17.5527C75.3897 16.7907 75.6094 15.5715 75.4769 8.08042L75.3626 1.61086L74.433 0.822345C73.2536 -0.177597 72.171 -0.177924 70.9916 0.822345ZM3.98027 10.1881C2.19532 10.9868 1.48638 11.6952 0.646577 13.5206C0.0317176 14.8565 0.0101863 16.1117 0.00322938 51.1037C-0.00472139 90.7374 -0.110401 88.5558 1.91837 90.6626C3.93455 92.7562 3.04639 92.6667 22.8037 92.7709C32.7061 92.8232 40.7549 92.7497 40.6906 92.6075C40.626 92.4654 40.0897 91.4341 39.499 90.3162L38.4246 88.283L22.9372 88.1921C7.51836 88.1013 7.44515 88.0977 6.41387 87.3722C4.19693 85.8122 4.30261 87.351 4.30261 56.5992V28.7907H42.2344H80.1662V39.841V50.8917L82.3195 52.2458L84.4728 53.6L84.4695 34.2511L84.4662 14.9026L83.6797 13.2363C82.5693 10.8835 80.3229 9.51073 77.5838 9.51073H76.4257L76.6032 13.5677C76.7593 17.1306 76.7063 17.7455 76.1693 18.6171C75.0101 20.497 72.8107 21.0856 70.6773 20.0869C68.8058 19.2112 68.5514 18.3373 68.7936 13.6223L69.0049 9.51073H65.0935H61.1824L61.3772 13.5781C61.5607 17.4064 61.5289 17.7086 60.8379 18.72C59.5535 20.6 57.6085 21.1029 55.4784 20.1059C53.6808 19.2644 53.3545 18.136 53.5725 13.5138L53.761 9.51073H49.8522H45.9434L46.1382 13.5781C46.3217 17.4064 46.2899 17.7086 45.5989 18.72C44.2347 20.7173 42.0134 21.18 40.0519 19.8761C38.2875 18.7033 38.1156 18.0684 38.3326 13.5376L38.5254 9.51073H34.6388H30.7522L30.8615 13.9458L30.9708 18.3808L29.7335 19.501C28.3298 20.7715 26.8238 20.9728 25.1422 20.115C23.2022 19.1255 22.8759 18.0792 23.0932 13.5458L23.2864 9.51073H19.3753H15.4642L15.6676 13.6772C15.8918 18.2739 15.7335 18.8925 14.0532 19.9853C12.7987 20.8009 11.0488 20.7908 9.66705 19.9601C7.98149 18.9461 7.68864 17.8736 7.87548 13.3987L8.03781 9.51073L6.74979 9.51792C6.0415 9.52184 4.79522 9.82346 3.98027 10.1881ZM27.7133 39.4655C27.5917 39.5851 27.4923 41.7174 27.4923 44.2038V48.7241H32.4616H37.4308V43.9859V39.2476H32.6825C30.0707 39.2476 27.8346 39.3456 27.7133 39.4655ZM43.7252 43.9859V48.7241H48.6944H53.6636V43.9859V39.2476H48.6944H43.7252V43.9859ZM59.6267 43.8574C59.6267 48.1176 59.6707 48.45 60.2064 48.2369C60.5251 48.1105 62.6871 47.9265 65.01 47.8284L69.2339 47.65V43.4486V39.2476H64.4303H59.6267V43.8574ZM63.4364 50.9087C58.9959 51.4707 53.7014 53.5088 50.5353 55.875C45.6171 59.5503 42.3437 64.2416 40.5425 70.1945C39.3768 74.0475 39.3012 79.8821 40.3653 83.8528C42.295 91.0537 47.3096 97.2422 53.9701 100.643C57.8066 102.601 60.5602 103.332 64.8752 103.538C69.4429 103.755 72.3386 103.311 76.2319 101.795C77.8031 101.183 79.2286 100.682 79.3999 100.682C79.5709 100.682 80.133 101.117 80.6488 101.648C81.5092 102.533 81.644 102.574 82.2754 102.138C82.6541 101.876 83.1169 101.664 83.3044 101.666C83.4916 101.668 85.0165 103.395 86.6934 105.505C88.37 107.615 91.1743 111.143 92.9248 113.345C94.6753 115.546 96.176 117.348 96.2598 117.348C96.7846 117.348 99.5554 115.287 101.493 113.455C103.63 111.436 107 107.412 107 106.881C107 106.657 99.7274 100.871 93.5056 96.1449L90.7778 94.0728L91.4304 93.2542C92.147 92.3559 92.0579 92.0631 90.7351 90.9652L89.8456 90.227L90.9812 87.6359C92.4971 84.1767 93.0736 81.2915 93.0805 77.1245C93.0958 67.7969 88.0745 59.1814 79.8349 54.3983C75.0717 51.6331 68.5968 50.2554 63.4364 50.9087ZM11.5908 59.1722V64.0827H16.4033H21.2155L21.1241 59.2628L21.0323 54.4428L16.3116 54.3523L11.5908 54.2614V59.1722ZM27.6411 54.6954C27.548 54.9339 27.5139 57.107 27.5652 59.5242L27.658 63.9193L32.5533 64.0099L37.4487 64.1004L37.3569 59.2716L37.2652 54.4428L32.5374 54.3519C28.8473 54.2813 27.7729 54.3565 27.6411 54.6954ZM64.5959 55.5087C56.6736 56.3263 50.0404 60.7535 46.7243 67.4355C44.9367 71.0376 44.3877 73.3583 44.3877 77.3107C44.3877 84.0744 47.1284 89.811 52.42 94.1235C63.2966 102.988 79.8597 99.4016 86.1475 86.82C88.6857 81.7409 89.1095 75.8706 87.3305 70.4294C85.2328 64.0128 79.6676 58.5615 73.1012 56.4917C71.1556 55.8783 66.3709 55.3254 64.5959 55.5087ZM53.7425 77.399L53.8293 89.7348L66.3351 89.827L78.841 89.9188V80.903C78.841 75.2246 78.7234 71.9588 78.523 72.0806C78.3481 72.1875 75.5782 75.4311 72.3678 79.289C69.1577 83.147 66.3464 86.3037 66.1211 86.3037C65.5785 86.3037 56.3139 77.846 56.3139 77.3506C56.3139 76.8908 59.3438 73.8861 59.8072 73.8861C59.9851 73.8861 61.2473 74.9092 62.6119 76.1595C63.9764 77.4097 65.2512 78.4391 65.445 78.4469C65.9267 78.4662 66.8553 77.4499 71.5525 71.762C73.7791 69.0661 75.8151 66.8113 76.0772 66.7519C76.3392 66.6921 77.0684 67.0303 77.6971 67.5034L78.841 68.3642V66.7136V65.0631H66.2484H53.6557L53.7425 77.399ZM11.5908 74.8576V79.7681H16.4033H21.2155L21.1241 74.9481L21.0323 70.1281L16.3116 70.0376L11.5908 69.9468V74.8576ZM27.6308 70.4069C27.5364 70.65 27.5036 72.8188 27.5583 75.2269L27.658 79.6047L31.9984 79.6956L36.3386 79.7864L36.5582 75.9376C36.6788 73.8207 36.867 71.6111 36.9763 71.0268L37.1747 69.9648H32.4887C28.8556 69.9648 27.7643 70.0641 27.6308 70.4069Z" fill="#07476A"/>
</svg>
