<svg width="56" height="63" viewBox="0 0 56 63" fill="none" xmlns="http://www.w3.org/2000/svg">
<path d="M52.3505 31.0109V62.1284H3.65221V31.0109C6.73472 31.7648 9.98422 31.3494 12.7831 29.8436V43.6975H43.2196V29.8744C46.0232 31.3669 49.2715 31.7713 52.3505 31.0109ZM6.69585 0.692139H18.8704L16.8312 19.2152C16.4977 21.706 15.2929 23.9945 13.4343 25.6675C11.5757 27.3405 9.18577 28.2878 6.69585 28.3385C1.64341 28.3385 -1.15675 24.4373 0.456385 19.5838L6.69585 0.692139ZM21.9141 0.692139H34.0886L36.2192 20.0446C36.7366 24.6523 33.4495 28.3385 28.8536 28.3385H27.1491C26.0999 28.3659 25.0573 28.163 24.0934 27.7436C23.1296 27.3242 22.2676 26.6984 21.567 25.9096C20.8665 25.1208 20.3442 24.1877 20.0362 23.175C19.7283 22.1623 19.642 21.0942 19.7835 20.0446L21.9141 0.692139ZM37.1323 0.692139H49.3069L55.5463 19.5838C57.1594 24.4373 54.3289 28.3385 49.3069 28.3385C46.8151 28.2941 44.4218 27.3489 42.5619 25.6748C40.7021 24.0006 39.499 21.7086 39.1715 19.2152L37.1323 0.692139Z" fill="#084C71"/>
</svg>
