<svg width="81" height="118" viewBox="0 0 81 118" fill="none" xmlns="http://www.w3.org/2000/svg">
<path fill-rule="evenodd" clip-rule="evenodd" d="M3.8126 1.00596C2.83653 1.51966 1.57925 2.70344 1.01887 3.63714C0.0173208 5.30605 0 6.23473 0 58.7099C0 111.185 0.0173208 112.114 1.01887 113.783C1.57925 114.716 2.83653 115.9 3.8126 116.414C5.49476 117.299 7.41787 117.348 40.5 117.348C73.5821 117.348 75.5052 117.299 77.1874 116.414C78.1635 115.9 79.4208 114.716 79.9811 113.783C80.9827 112.114 81 111.185 81 58.7099C81 6.23473 80.9827 5.30605 79.9811 3.63714C79.4208 2.70344 78.1635 1.51966 77.1874 1.00596C75.5052 0.12138 73.5821 0.0722656 40.5 0.0722656C7.41787 0.0722656 5.49476 0.12138 3.8126 1.00596ZM5.34906 5.08403C4.34292 6.07386 4.33019 6.75446 4.33019 58.7099C4.33019 110.843 4.33987 111.343 5.35976 112.346C6.37455 113.345 6.85851 113.357 40.8062 113.223C74.2042 113.092 75.2454 113.059 75.9469 112.115C76.5603 111.289 76.6698 103.183 76.6698 58.6142C76.6698 6.75446 76.6571 6.07386 75.6509 5.08403C74.6525 4.10173 73.953 4.08168 40.5 4.08168C7.047 4.08168 6.34755 4.10173 5.34906 5.08403ZM9.19885 11.7111C8.55951 12.6087 8.40566 14.4124 8.40566 21.0054C8.40566 29.0227 8.43062 29.2107 9.65632 30.416L10.9065 31.6464H40.5H70.0935L71.3437 30.416C72.5694 29.2107 72.5943 29.0227 72.5943 21.0054C72.5943 14.4124 72.4405 12.6087 71.8011 11.7111L71.0085 10.597H40.5H9.99153L9.19885 11.7111ZM12.9906 20.8711V27.1358H40.5H68.0094V20.8711V14.6064H40.5H12.9906V20.8711ZM11.2865 38.5772C10.1571 39.8051 10.2243 40.4596 11.5759 41.3908C12.4608 42.0007 14.1668 42.1711 19.3931 42.1711C25.2221 42.1711 26.1859 42.0538 26.921 41.2545C28.0433 40.0346 27.9868 38.8152 26.7789 38.1792C26.2369 37.8941 22.7192 37.6605 18.9616 37.6605C12.9901 37.6605 12.0237 37.7758 11.2865 38.5772ZM32.6399 38.4479C31.5335 39.5369 31.6389 40.4721 32.9721 41.3908C33.8509 41.9967 35.5356 42.1711 40.5 42.1711C45.4644 42.1711 47.1491 41.9967 48.0279 41.3908C49.3611 40.4721 49.4665 39.5369 48.3601 38.4479C47.1828 37.2902 33.8172 37.2902 32.6399 38.4479ZM54.0362 38.4479C52.9867 39.4808 53.0249 40.3248 54.1676 41.3417C55.4921 42.5209 67.7267 42.5605 69.4241 41.3908C70.8006 40.4426 70.8592 39.5891 69.6249 38.49C68.284 37.2957 55.243 37.2611 54.0362 38.4479ZM9.42453 49.1876C8.51111 50.0862 8.40668 50.8525 8.4133 56.5799C8.41789 60.0942 8.58957 63.218 8.79538 63.5212C9.68128 64.8263 11.6533 65.2252 17.2184 65.2252C22.3387 65.2252 23.2042 65.1 24.3841 64.1863C25.7106 63.1599 25.7264 63.0712 25.7264 56.6687C25.7264 47.9747 25.9409 48.1852 17.066 48.1852C11.1225 48.1852 10.339 48.288 9.42453 49.1876ZM30.8208 49.1876C29.9079 50.0857 29.8019 50.858 29.8019 56.6095C29.8019 65.2754 29.4748 64.9305 37.8937 65.1395C44.4817 65.3029 44.5536 65.2924 45.872 63.9949C47.1909 62.6978 47.2016 62.6271 47.0355 56.1459C46.8231 47.8635 47.1736 48.1852 38.365 48.1852C32.5187 48.1852 31.7337 48.2895 30.8208 49.1876ZM54.029 49.2994C52.9363 50.834 52.8798 62.549 53.9577 64.0019C54.5966 64.8624 55.4473 64.9937 61.3277 65.1395C67.8653 65.3014 67.9967 65.2834 69.2662 64.0344C70.5102 62.8106 70.5566 62.5379 70.5566 56.4772C70.5566 47.9767 70.7803 48.1852 61.6706 48.1852C55.1707 48.1852 54.7815 48.2419 54.029 49.2994ZM12.9906 56.4547V60.7147H17.066H21.1415V56.4547V52.1946H17.066H12.9906V56.4547ZM34.2172 52.5289C34.0302 52.7124 33.8774 54.6294 33.8774 56.7889V60.7147H38.2076H42.5377V56.4547V52.1946H38.5473C36.3522 52.1946 34.4036 52.345 34.2172 52.5289ZM57.6705 52.5094C57.4728 52.7038 57.3113 54.6294 57.3113 56.7889V60.7147H61.6619H66.013L65.8647 56.5799L65.717 52.4452L61.8733 52.3009C59.7592 52.2212 57.8681 52.3154 57.6705 52.5094ZM9.19885 70.3488C8.58243 71.2138 8.40566 72.8742 8.40566 77.7887C8.40566 86.0877 8.05925 85.7735 17.2046 85.7735C25.9908 85.7735 25.7264 86.0301 25.7264 77.5041C25.7264 68.962 26.0117 69.2347 17.066 69.2347C10.3334 69.2347 9.95332 69.2883 9.19885 70.3488ZM30.645 70.1513C29.4331 71.4684 29.3979 83.8009 30.6022 84.9861C31.2533 85.6262 32.726 85.7735 38.4867 85.7735C47.5399 85.7735 47.2795 86.0411 47.0376 76.9864C46.8216 68.9279 47.1716 69.2347 38.1892 69.2347C32.3445 69.2347 31.3806 69.3519 30.645 70.1513ZM54.079 70.1513C53.3291 70.9662 53.2359 72.9559 53.2359 88.116C53.2359 103.995 53.2995 105.221 54.1676 105.993C54.9384 106.68 56.296 106.823 62.0348 106.823C68.6243 106.823 69.01 106.767 69.7634 105.709C70.443 104.755 70.5566 102.201 70.5566 87.917C70.5566 71.9074 70.5159 71.1993 69.5377 70.237C68.6208 69.3349 67.8398 69.2347 61.7205 69.2347C55.7815 69.2347 54.8156 69.3504 54.079 70.1513ZM12.9906 77.5041V81.7641H17.066H21.1415V77.5041V73.2441H17.066H12.9906V77.5041ZM34.0908 73.9202C33.9461 74.292 33.8957 76.1529 33.9798 78.0549L34.1321 81.5135L38.3349 81.6588L42.5377 81.8047V77.5241V73.2441H38.4465C35.4826 73.2441 34.2824 73.4305 34.0908 73.9202ZM57.6491 73.62C57.2772 74.2229 57.2288 100.061 57.5971 101.503C57.9221 102.777 58.0413 102.814 61.9512 102.814H65.9717V88.0288V73.2441H61.9263C59.7011 73.2441 57.7764 73.4135 57.6491 73.62ZM9.19885 91.3982C8.58243 92.2632 8.40566 93.9236 8.40566 98.8382C8.40566 107.137 8.05925 106.823 17.2046 106.823C25.9908 106.823 25.7264 107.08 25.7264 98.5535C25.7264 90.0114 26.0117 90.2841 17.066 90.2841C10.3334 90.2841 9.95332 90.3377 9.19885 91.3982ZM30.645 91.2007C29.9512 91.9545 29.8019 93.2736 29.8019 98.6407C29.8019 107.167 29.4315 106.823 38.6008 106.823C47.387 106.823 47.1226 107.08 47.1226 98.5535C47.1226 90.0175 47.4003 90.2841 38.5122 90.2841C32.3542 90.2841 31.3842 90.3973 30.645 91.2007ZM12.9906 98.5535V102.814H17.066H21.1415V98.5535V94.2935H17.066H12.9906V98.5535ZM34.0908 94.9696C33.9461 95.3415 33.8957 97.2023 33.9798 99.1043L34.1321 102.563L38.3349 102.708L42.5377 102.854V98.5736V94.2935H38.4465C35.4826 94.2935 34.2824 94.4799 34.0908 94.9696Z" fill="#07476A"/>
</svg>
