<svg width="108" height="123" viewBox="0 0 108 123" fill="none" xmlns="http://www.w3.org/2000/svg">
<path fill-rule="evenodd" clip-rule="evenodd" d="M32.6388 1.10942C29.6963 2.66325 27.7459 6.97985 27.1619 13.2304L27.0282 14.6592L24.5889 14.9727C17.6736 15.8607 12.6827 18.2352 8.48621 22.634C3.09835 28.2809 0.133713 36.6934 0.0126235 46.6776C-0.0100055 48.5417 -0.00133897 63.4257 0.0316416 79.7535L0.091825 109.44L2.0177 111.531L3.94356 113.622V117.634C3.94356 121.554 3.95729 121.66 4.53457 122.272L5.12533 122.898H13.5729H22.0205L22.6113 122.272C23.189 121.66 23.2023 121.556 23.2023 117.605V113.563L24.1652 112.567L25.1281 111.57L26.0911 112.567L27.054 113.563V117.605C27.054 121.556 27.0672 121.66 27.645 122.272L28.2358 122.898H54.0162H79.7966L80.3874 122.272C80.9651 121.66 80.9784 121.556 80.9784 117.605V113.563L81.9413 112.567L82.9042 111.57L83.8672 112.567L84.8301 113.563V117.605C84.8301 121.556 84.8433 121.66 85.4211 122.272L86.0119 122.898H94.4595H102.907L103.498 122.272C104.075 121.66 104.089 121.554 104.089 117.634V113.622L106 111.548L107.91 109.473L107.986 77.6017C108.027 60.0723 107.976 44.6404 107.872 43.3088C107.199 34.659 103.952 26.8567 99.0153 22.0212C95.0001 18.0891 89.9662 15.8102 83.4435 14.9727L81.0041 14.6592L80.8529 13.2304C80.1093 6.20025 78.2448 2.3232 74.8945 0.839781C74.1266 0.499729 71.4191 0.449219 53.9507 0.449219H33.8892L32.6388 1.10942ZM37.5161 5.23239C37.8858 6.8273 39.4191 9.70409 40.6504 11.1135C42.032 12.6947 43.9501 13.9255 45.8938 14.4773C47.3062 14.8783 49.105 16.4972 49.7123 17.9138C50.1358 18.9018 50.1541 20.9965 50.1591 68.8805L50.1644 118.817H54.0162H57.8679L57.8732 68.8805C57.8783 20.9965 57.8966 18.9018 58.32 17.9138C58.9274 16.4972 60.7262 14.8783 62.1385 14.4773C64.0586 13.9322 66.0016 12.6936 67.3401 11.1615C68.543 9.78445 70.1689 6.75102 70.5178 5.23239L70.6791 4.53086H54.0162H37.3533L37.5161 5.23239ZM32.7555 6.61097C31.8894 8.19822 31.4317 10.0676 31.1323 13.2416L30.8706 16.0174L31.5832 16.9707C32.775 18.5648 36.478 22.2064 37.9612 23.2434C40.427 24.9671 44.4545 26.7248 45.9379 26.7248C46.2581 26.7248 46.3127 26.2388 46.3127 23.3916C46.3127 20.5337 46.17 19.4656 45.7085 18.8699C45.6769 18.8291 44.7819 18.4699 43.7198 18.072C39.303 16.4169 36.2284 13.0398 34.139 7.54847L33.3605 5.50229L32.7555 6.61097ZM73.9434 7.40816C72.0291 12.787 68.7616 16.4049 64.3126 18.072C63.2505 18.4699 62.3554 18.8291 62.3239 18.8699C61.8624 19.4656 61.7197 20.5337 61.7197 23.3916C61.7197 26.2388 61.7743 26.7248 62.0945 26.7248C63.8157 26.7248 68.647 24.4332 71.1083 22.4493C71.9689 21.7556 73.6832 20.0671 74.9177 18.6972L77.1625 16.2067L77.007 14.2589C76.6907 10.3031 75.9933 7.45332 75.0176 6.13265C74.6013 5.56938 74.5951 5.57678 73.9434 7.40816ZM24.7155 19.097C21.7622 19.4615 19.1023 20.3074 16.2809 21.7799C14.1329 22.9011 13.1829 23.5822 11.6882 25.072C7.71947 29.0284 5.30467 34.3967 4.29215 41.5133C4.00567 43.5269 3.94621 49.4177 3.94501 75.8247L3.94356 107.705L5.32032 109.179L6.69684 110.654H13.5729H20.449L21.8255 109.179L23.2023 107.705V78.1729V48.6404L23.7933 48.0144C24.1657 47.6195 24.6592 47.3881 25.1281 47.3881C25.5971 47.3881 26.0906 47.6195 26.463 48.0144L27.054 48.6404V78.1729V107.705L28.4308 109.179L29.8073 110.654H38.0601H46.3127V70.8624V31.0712L45.6507 30.9245C39.2975 29.5161 35.8338 27.4557 30.834 22.1105C27.4428 18.4847 27.8906 18.7054 24.7155 19.097ZM77.1266 22.136C72.2515 27.4302 68.7616 29.5103 62.3817 30.9245L61.7197 31.0712V70.8624V110.654H69.9723H78.2251L79.6016 109.179L80.9784 107.705V78.1729V48.6404L81.5694 48.0144C82.351 47.1858 83.4575 47.1858 84.2391 48.0144L84.8301 48.6404V78.1729V107.705L86.2069 109.179L87.5834 110.654H94.4595H101.336L102.712 109.179L104.089 107.705V75.9068C104.089 54.7856 104.003 43.4386 103.832 42.1131C103.221 37.3687 101.585 32.3072 99.6425 29.1483C99.1246 28.3064 97.7736 26.636 96.6405 25.4365C94.8372 23.5276 94.2341 23.0748 91.8114 21.8108C90.2887 21.0164 88.1737 20.1368 87.1113 19.8559C85.358 19.3926 81.391 18.786 80.4969 18.8444C80.2983 18.8574 78.7817 20.3386 77.1266 22.136ZM7.79531 116.776V118.817H13.5729H19.3505V116.776V114.735H13.5729H7.79531V116.776ZM30.9057 116.776V118.817H38.6092H46.3127V116.776V114.735H38.6092H30.9057V116.776ZM61.7197 116.776V118.817H69.4231H77.1266V116.776V114.735H69.4231H61.7197V116.776ZM88.6818 116.776V118.817H94.4595H100.237V116.776V114.735H94.4595H88.6818V116.776Z" fill="#07476A"/>
</svg>
