<svg width="62" height="63" viewBox="0 0 62 63" fill="none" xmlns="http://www.w3.org/2000/svg">
<path d="M48.9273 6.86466H61.1592V53.1586C61.1592 55.6142 60.1926 57.9692 58.4722 59.7055C56.7518 61.4419 54.4184 62.4174 51.9853 62.4174H9.17387C6.74081 62.4174 4.4074 61.4419 2.68697 59.7055C0.96653 57.9692 0 55.6142 0 53.1586L0 0.692139H48.9273V6.86466ZM48.9273 13.0372V53.1586C48.9273 53.9771 49.2495 54.7621 49.823 55.3409C50.3965 55.9197 51.1743 56.2448 51.9853 56.2448C52.7963 56.2448 53.5741 55.9197 54.1476 55.3409C54.7211 54.7621 55.0432 53.9771 55.0432 53.1586V13.0372H48.9273ZM6.11592 6.86466V53.1586C6.11592 53.9771 6.43809 54.7621 7.01157 55.3409C7.58505 55.9197 8.36285 56.2448 9.17387 56.2448H43.3313C42.9845 55.2536 42.8087 54.2098 42.8114 53.1586V6.86466H6.11592ZM12.2318 31.5547H36.6955V37.7273H12.2318V31.5547ZM12.2318 43.8998H36.6955V50.0723H12.2318V43.8998ZM12.2318 13.0372H36.6955V25.3822H12.2318V13.0372Z" fill="#084C71"/>
</svg>
