<svg width="141" height="118" viewBox="0 0 141 118" fill="none" xmlns="http://www.w3.org/2000/svg">
<path fill-rule="evenodd" clip-rule="evenodd" d="M99.6255 0.806593C98.9795 1.44663 97.9379 5.62252 98.3361 5.97559C98.4168 6.04733 99.6871 6.26614 101.16 6.46292L103.837 6.81958L104.184 4.52948C104.634 1.55629 103.861 0.0722656 101.863 0.0722656C101.04 0.0722656 100.033 0.40279 99.6255 0.806593ZM100.026 2.14663C99.6643 3.27656 100.53 4.68424 101.586 4.68424C102.642 4.68424 103.507 3.27656 103.145 2.14663C102.931 1.4784 102.364 1.09715 101.586 1.09715C100.807 1.09715 100.24 1.4784 100.026 2.14663ZM58.2762 3.62963C43.0907 8.43941 36.8465 26.4953 45.7646 39.808C54.2193 52.4279 72.9886 53.8463 83.3368 42.6474C92.0077 33.2636 91.9182 19.2196 83.1283 10.0111C79.9346 6.66585 77.1562 4.9379 72.8164 3.59991C68.7387 2.34238 62.298 2.3557 58.2762 3.62963ZM94.6035 6.99022C94.6035 7.41299 94.5937 7.93209 94.5812 8.14322C94.5688 8.35434 96.0237 8.78787 97.8138 9.10558C99.6038 9.42329 100.428 9.7118 99.6462 9.74613C98.3072 9.80506 97.5324 10.8335 98.8275 10.8335C99.159 10.8335 99.3142 10.9493 99.1714 11.0908C99.0287 11.2322 97.8381 11.0277 96.5264 10.6368C95.2143 10.2452 94.0144 10.0505 93.8597 10.2043C93.4475 10.6122 94.6159 11.8584 95.4103 11.8584C95.7848 11.8584 96.0568 12.3083 96.0149 12.8582C95.9648 13.5192 95.6006 13.8231 94.9402 13.755C94.3909 13.6986 93.8458 13.9179 93.7289 14.2433C93.6001 14.601 95.0638 15.2897 97.43 15.9856C99.5826 16.619 101.239 17.2411 101.11 17.3682C100.982 17.4958 99.6829 17.2068 98.2239 16.7266C95.6369 15.8754 94.1297 16.0415 95.6529 17.01C96.1675 17.3369 95.8468 17.3861 94.6635 17.1606C91.9668 16.6472 92.8502 18.0087 95.928 19.111C98.3765 19.9878 98.3992 20.0124 96.468 19.7141C93.6958 19.2863 94.4318 20.2455 97.536 21.107C98.8792 21.4795 99.7471 21.8602 99.4641 21.954C99.1818 22.0473 97.6281 21.6727 96.0123 21.1218C94.0521 20.4536 92.9619 20.2993 92.7379 20.6586C92.3697 21.2489 93.416 22.0867 94.5373 22.0996C95.0964 22.1057 95.116 22.264 94.6299 22.8441C94.1183 23.4555 94.3738 23.6886 96.1215 24.2077C97.2816 24.5521 98.1251 24.938 97.9968 25.0656C97.8681 25.1927 96.6614 24.9252 95.3152 24.4706C92.3216 23.4601 92.0175 23.4514 92.0175 24.3727C92.0175 24.773 92.7141 25.2521 93.5655 25.4376C94.9386 25.7363 95.0266 25.8609 94.3413 26.5393C93.9166 26.9606 93.5691 27.821 93.5691 28.4518C93.5691 29.4597 93.9606 29.6637 96.8016 30.1351C99.1368 30.5231 100.142 30.5143 100.421 30.1049C101.216 28.9401 100.478 28.0623 97.9653 27.1871C96.543 26.6915 95.6338 26.2683 95.9446 26.2467C96.2559 26.2247 97.8634 26.668 99.5169 27.2317C103.097 28.4518 103.396 28.4748 103.396 27.5284C103.396 27.1256 102.645 26.6336 101.715 26.4266C100.791 26.2211 100.325 25.9531 100.681 25.8312C101.74 25.4673 101.42 24.7914 99.9048 24.1939C98.3698 23.5887 98.2854 23.579 102.491 24.4896C104.137 24.8462 104.538 23.7107 102.915 23.29C101.477 22.9174 101.739 21.152 103.216 21.2566C105.736 21.4349 104.317 20.2425 100.471 18.9506C98.2394 18.2004 96.663 17.5665 96.9681 17.5414C97.2728 17.5158 98.6237 17.8673 99.97 18.3213C102.366 19.1305 103.854 18.9255 102.347 17.9944C101.851 17.6885 102.287 17.6357 103.595 17.8442C106.631 18.3275 105.778 17.0351 102.337 15.938C100.786 15.4429 99.7926 15.0145 100.13 14.9858C100.467 14.9566 101.36 15.1657 102.114 15.4496C103.135 15.8339 103.432 15.8098 103.28 15.3553C103.166 15.0192 101.924 14.3432 100.52 13.8533C99.1145 13.3635 98.2198 12.9448 98.5306 12.9233C98.842 12.9012 100.394 13.3255 101.979 13.8656C103.563 14.4063 104.997 14.7137 105.163 14.5492C105.841 13.8769 105.36 13.4055 103.4 12.8239C101.795 12.3478 101.459 12.0624 101.892 11.5448C102.2 11.1784 102.302 10.6403 102.121 10.3498C101.903 10.0003 102.563 9.926 104.067 10.1299C105.95 10.3857 106.404 10.2816 106.697 9.52578C106.891 9.02359 106.868 8.44556 106.646 8.24212C106.246 7.87572 97.0736 6.22156 95.4445 6.22156C94.9821 6.22156 94.6035 6.56746 94.6035 6.99022ZM61.1043 8.01152C57.2527 9.08047 55.4808 10.09 52.4164 12.9617C50.7142 14.5564 49.1973 16.638 48.2617 18.6626C46.9909 21.4119 46.7871 22.4864 46.783 26.463C46.7794 30.3893 46.9837 31.5105 48.1567 34.0051C49.984 37.8904 53.547 41.5754 57.2212 43.3792C61.4131 45.4377 68.1403 45.779 72.4915 44.1545C76.4031 42.6941 80.742 38.7452 82.8708 34.7071C84.3996 31.8083 84.516 31.2251 84.517 26.463C84.5175 21.8838 84.3634 21.027 83.0663 18.409C79.0192 10.2411 69.4292 5.70092 61.1043 8.01152ZM60.8876 9.50477C57.6453 10.4328 55.3489 11.8999 52.7267 14.7184C49.3069 18.3946 48.3196 21.0234 48.3165 26.463C48.3144 30.4682 48.5022 31.4552 49.7466 33.9662C54.0838 42.7156 65.0371 46.4221 73.6304 42.0479C76.5521 40.5608 79.9563 37.1817 81.5871 34.1496C82.8159 31.8657 82.9654 31.0309 82.9654 26.463C82.9654 21.8479 82.8227 21.0695 81.526 18.6308C78.443 12.8315 73.2156 9.41612 66.8246 9.02513C64.7454 8.89804 62.3234 9.09379 60.8876 9.50477ZM60.6642 12.255C50.4758 15.8652 47.3023 28.3928 54.5529 36.3828C60.3218 42.7407 70.0742 43.0594 76.2749 37.0926C83.5054 30.1351 81.6941 17.7346 72.7889 13.222C68.9854 11.2947 64.4051 10.9294 60.6642 12.255ZM65.4767 14.621C65.0909 17.6885 65.2786 18.5786 66.1305 17.7172C66.3943 17.4502 66.4382 15.9954 66.2298 14.4206L65.8564 11.6022L65.4767 14.621ZM1.07993 14.0691C-1.31523 16.5954 0.517215 19.8622 4.18573 19.6055C6.69002 19.4308 7.65926 15.1585 5.52942 13.6812C3.90954 12.5564 2.38845 12.6891 1.07993 14.0691ZM55.8133 16.3571C55.8133 17.3072 59.2853 20.8881 59.7549 20.4223C59.9773 20.2025 59.1814 19.0536 57.9861 17.8694C56.7909 16.6856 55.8133 16.0051 55.8133 16.3571ZM73.6568 18.0077C72.5557 19.1248 71.8088 20.1912 71.9971 20.3772C72.431 20.8072 73.6615 19.8007 75.0305 17.8955C76.638 15.6587 75.9134 15.7181 73.6568 18.0077ZM8.23076 17.1699C8.23076 17.5547 7.73891 18.4894 7.1374 19.2468C6.53589 20.0042 6.12886 20.696 6.2323 20.7841C6.33574 20.8723 12.3554 24.3389 19.6092 28.4876C26.863 32.6364 32.9934 36.2168 33.2328 36.4438C33.5969 36.7892 41.2427 55.9473 52.4117 84.5011L54.8689 90.7821L86.9639 90.6504L119.059 90.5182L129.843 63.1333C135.774 48.0716 140.761 35.3313 140.924 34.8209C141.188 33.9964 140.878 33.8934 138.122 33.8934H135.024L132.847 39.4021C123.671 62.6234 114.774 85.2948 114.774 85.4557C114.774 85.5628 102.265 85.6464 86.9748 85.6423L59.1752 85.6341L49.1337 60.0417C43.611 45.966 38.9562 34.2413 38.7896 33.9872C38.5119 33.5634 8.88813 16.4704 8.43144 16.4704C8.32076 16.4704 8.23076 16.785 8.23076 17.1699ZM63.0547 19.0956C60.2096 20.2199 57.8821 23.4155 57.8821 26.1975C57.8821 33.2487 66.2024 36.6503 71.2399 31.6591C72.7605 30.1526 73.0812 29.4331 73.2549 27.1404C73.5285 23.5303 72.2873 21.2202 69.242 19.6731C66.8111 18.4382 65.1188 18.2803 63.0547 19.0956ZM62.1744 20.5494C57.5563 23.3391 57.9189 30.2853 62.8028 32.581C67.4059 34.7456 72.536 31.5208 72.536 26.463C72.536 21.148 66.6984 17.8161 62.1744 20.5494ZM65.0832 20.698C64.6725 22.0278 64.8085 22.5105 65.5176 22.241C66.0953 22.0212 66.206 22.1277 65.9039 22.612C65.6045 23.0916 65.6784 23.169 66.1558 22.8769C66.6922 22.5485 66.657 22.3368 65.9852 21.85C65.5197 21.5133 65.2906 21.087 65.4757 20.9035C65.6609 20.7201 65.6572 20.5699 65.4679 20.5699C65.2781 20.5699 65.1054 20.6273 65.0832 20.698ZM113.481 23.5887C102.347 26.4609 98.9226 39.8254 107.421 47.2374C114.091 53.0541 124.184 51.2687 128.526 43.5037C129.818 41.1926 130.03 40.2671 130.02 36.968C130.011 34.0358 129.744 32.6302 128.893 31.0401C127.582 28.5855 124.141 25.3674 121.786 24.3927C119.603 23.4888 115.433 23.085 113.481 23.5887ZM64.0886 24.6694C62.915 25.8322 62.8292 26.3697 63.5895 27.7779C64.1962 28.9012 66.6223 29.1282 67.6055 28.154C68.5929 27.1758 68.327 25.31 67.0764 24.4424C65.5972 23.4155 65.334 23.4355 64.0886 24.6694ZM60.3528 25.5391C59.9013 26.422 60.2473 27.4879 60.9854 27.4879C61.892 27.4879 62.0446 25.6169 61.1622 25.3259C60.8328 25.2167 60.4682 25.3131 60.3528 25.5391ZM69.4344 25.9849C69.2632 26.4266 69.3883 27.0508 69.7126 27.3721C70.4408 28.0936 72.1652 26.6198 71.6185 25.7435C71.1023 24.9159 69.7923 25.061 69.4344 25.9849ZM52.7101 26.2068C51.7233 26.5199 52.1216 26.629 54.391 26.668C56.0631 26.6967 57.3649 26.4948 57.3649 26.2068C57.3649 25.6108 54.5881 25.6108 52.7101 26.2068ZM69.7778 26.5055C69.7778 27.4105 70.8913 27.2532 71.211 26.3031C71.3237 25.968 71.047 25.6943 70.5965 25.6943C70.1466 25.6943 69.7778 26.0597 69.7778 26.5055ZM74.5319 26.2452C74.6338 26.5481 74.8857 26.7787 75.092 26.7576C75.2984 26.7366 76.5723 26.6921 77.9237 26.6587C80.1167 26.6044 80.2139 26.5557 78.8288 26.2068C76.4497 25.6067 74.3235 25.6262 74.5319 26.2452ZM114.213 29.2589C113.477 29.4797 112.294 30.0373 111.585 30.4974C110.876 30.9581 110.102 31.1611 109.866 30.9489C109.63 30.7362 109.6 30.8444 109.799 31.1887C109.999 31.5331 109.759 32.4247 109.266 33.1708C107.986 35.1058 108.096 38.9081 109.496 41.1531C110.116 42.1473 110.452 43.1686 110.242 43.4233C110.033 43.6774 110.053 43.7338 110.289 43.5478C110.523 43.3618 111.738 43.658 112.988 44.2058C114.483 44.8607 116.135 45.1517 117.815 45.0564C119.22 44.9765 120.276 44.8161 120.161 44.7008C119.876 44.4123 122.179 42.8391 122.662 42.9933C122.875 43.0615 123.014 42.9441 122.97 42.733C122.926 42.5214 123.275 41.4914 123.746 40.4434C124.903 37.8674 124.822 35.8074 123.462 33.2323C122.836 32.046 122.39 30.8444 122.471 30.5625C122.552 30.2807 122.464 30.2033 122.275 30.3909C122.086 30.5779 120.961 30.295 119.775 29.7616C117.469 28.7239 116.334 28.6214 114.213 29.2589ZM64.9906 30.1782C64.5763 31.0017 64.9006 32.0245 65.6402 32.2244C66.2572 32.3909 66.2748 32.3356 65.726 31.9538C65.169 31.5664 65.2 31.4116 65.8884 31.1498C66.357 30.972 66.5955 30.5938 66.4181 30.3099C66.0395 29.7026 65.2657 29.6314 64.9906 30.1782ZM112.343 30.7982C110.228 32.0753 109.085 34.2787 109.087 37.0705C109.09 40.1067 110.642 42.4383 113.494 43.6882C116.399 44.9616 118.884 44.5855 121.268 42.5111C126.56 37.9079 123.407 29.7974 116.326 29.7974C114.928 29.7974 113.338 30.1972 112.343 30.7982ZM92.8647 31.6725C92.7059 32.4714 92.5083 33.9298 92.4261 34.9137L92.2761 36.7021L95.6379 37.3011C97.4869 37.6301 99.0783 37.8238 99.174 37.7306C99.4693 37.4451 100.267 33.7017 100.28 32.5426C100.291 31.6248 99.8955 31.3906 97.836 31.0965C96.4846 30.9033 94.8786 30.6271 94.2663 30.4826C93.3669 30.2709 93.0979 30.4995 92.8647 31.6725ZM115.522 31.3758C115.331 31.6822 115.414 32.1695 115.705 32.4586C116.358 33.1053 117.36 32.559 117.36 31.5572C117.36 30.6942 116.029 30.563 115.522 31.3758ZM57.3727 34.1419C56.4117 35.1243 55.7389 36.04 55.8775 36.1773C56.2131 36.5099 59.951 33.4394 59.951 32.8311C59.951 31.9343 59.1172 32.3581 57.3727 34.1419ZM71.8466 32.8152C71.8466 33.4727 75.5162 36.5776 75.8741 36.2235C76.2097 35.8909 72.9084 32.3561 72.2624 32.3561C72.0338 32.3561 71.8466 32.5626 71.8466 32.8152ZM114.101 34.8055C112.241 36.842 113.632 40.0519 116.367 40.035C117.932 40.0253 118.584 39.601 119.404 38.057C120.834 35.3702 116.188 32.5216 114.101 34.8055ZM65.153 35.815C65.169 36.3085 65.3754 37.6342 65.6107 38.7616C65.9298 40.2912 66.0534 40.4701 66.0979 39.4662C66.1305 38.7262 66.3027 37.4005 66.4806 36.5197C66.7366 35.2519 66.6291 34.9183 65.9634 34.9183C65.4964 34.9183 65.1364 35.317 65.153 35.815ZM110.35 36.5002C109.817 37.3549 111.016 38.3347 111.73 37.6276C112.326 37.0362 111.953 35.9432 111.154 35.9432C110.903 35.9432 110.542 36.1937 110.35 36.5002ZM120.722 36.4556C120.289 37.1494 120.873 37.9929 121.787 37.9929C122.197 37.9929 122.532 37.5317 122.532 36.968C122.532 35.9073 121.284 35.5537 120.722 36.4556ZM92.2761 37.8761C92.9288 38.5269 98.7411 39.5144 98.7411 38.9748C98.7411 38.4685 97.6089 38.142 94.3449 37.706C92.6117 37.4743 91.9296 37.5307 92.2761 37.8761ZM93.0519 41.0368C93.0519 44.5445 95.5541 45.1497 96.9154 41.972C97.7563 40.0089 97.5717 39.7598 94.9914 39.3729L93.0519 39.0824V41.0368ZM94.0863 42.0924C94.0863 42.6618 94.4313 43.1173 94.8621 43.1173C95.2929 43.1173 95.6379 42.6618 95.6379 42.0924C95.6379 41.5231 95.2929 41.0676 94.8621 41.0676C94.4313 41.0676 94.0863 41.5231 94.0863 42.0924ZM115.647 41.3986C114.915 42.1237 115.329 43.1173 116.364 43.1173C117.087 43.1173 117.382 42.8391 117.269 42.2631C117.084 41.3197 116.201 40.8493 115.647 41.3986ZM78.053 52.0851C78.053 53.1668 78.2946 53.3662 79.6046 53.3662C80.9147 53.3662 81.1562 53.1668 81.1562 52.0851C81.1562 51.0033 80.9147 50.804 79.6046 50.804C78.2946 50.804 78.053 51.0033 78.053 52.0851ZM106.499 52.0851C106.499 53.1099 106.758 53.3662 107.792 53.3662C108.827 53.3662 109.085 53.1099 109.085 52.0851C109.085 51.0602 108.827 50.804 107.792 50.804C106.758 50.804 106.499 51.0602 106.499 52.0851ZM76.3359 54.2137C76.1425 54.4049 75.9842 54.8692 75.9842 55.2453C75.9842 55.8013 79.3093 55.9284 93.8654 55.9284C110.617 55.9284 111.736 55.8715 111.573 55.0316C111.412 54.202 110.098 54.1246 94.0428 54C84.4974 53.9257 76.5293 54.0221 76.3359 54.2137ZM74.5309 57.85C74.6933 58.6848 76.0147 58.7468 93.5691 58.7468C111.123 58.7468 112.445 58.6848 112.607 57.85C112.771 57.0091 111.588 56.9532 93.5691 56.9532C75.5503 56.9532 74.3674 57.0091 74.5309 57.85ZM57.5061 61.1988C54.8813 62.6685 52.7287 63.9998 52.722 64.1577C52.7153 64.315 53.0013 64.8243 53.3566 65.2896C53.9406 66.0537 54.4536 65.8841 58.6579 63.5361C61.2181 62.1058 63.5238 60.7417 63.7824 60.504C64.2391 60.0827 63.2864 58.4706 62.6032 58.5085C62.4242 58.5182 60.1309 59.7291 57.5061 61.1988ZM58.0414 61.6877C55.427 63.1563 53.3768 64.4462 53.4859 64.5543C53.7073 64.7741 63.0542 59.5636 63.0542 59.2208C63.0542 58.8739 63.0293 58.8862 58.0414 61.6877ZM75.9842 70.5329V81.038H77.7944H79.6046V75.109C79.6046 69.2539 79.6191 69.1827 80.7683 69.3441C81.886 69.5014 81.9377 69.7351 82.0784 75.273C82.1963 79.9327 82.3701 81.038 82.9835 81.038C83.6062 81.038 83.7422 79.9829 83.7422 75.1449V69.2518H85.0352H86.3283V75.1449C86.3283 80.0418 86.4596 81.038 87.1041 81.038C87.7485 81.038 87.8799 80.0418 87.8799 75.1449V69.2518H89.1729H90.4659V75.1449C90.4659 80.6962 90.5259 81.038 91.5003 81.038C92.4752 81.038 92.5347 80.6962 92.5347 75.109C92.5347 69.2539 92.5492 69.1827 93.6984 69.3441C94.8161 69.5014 94.8678 69.7351 95.0085 75.273C95.1264 79.9327 95.3002 81.038 95.9136 81.038C96.5363 81.038 96.6723 79.9829 96.6723 75.1449V69.2518H97.9653H99.2583V75.1449C99.2583 79.9829 99.3943 81.038 100.017 81.038C100.63 81.038 100.804 79.9327 100.922 75.273C101.063 69.7351 101.115 69.5014 102.232 69.3441C103.381 69.1827 103.396 69.2539 103.396 75.109C103.396 80.6962 103.455 81.038 104.43 81.038C105.405 81.038 105.465 80.6962 105.465 75.109C105.465 69.2539 105.479 69.1827 106.628 69.3441C107.746 69.5014 107.798 69.7351 107.939 75.273L108.085 81.038H109.878H111.671V70.5329V60.0279H93.8277H75.9842V70.5329ZM59.4338 63.6186C57.5848 64.7116 55.8392 65.7027 55.5547 65.8216C55.2703 65.9399 55.1539 66.1613 55.2961 66.314C55.4384 66.4662 57.3003 65.5792 59.4338 64.3427C61.5672 63.1066 63.5455 62.092 63.83 62.0889C64.1144 62.0854 63.4348 62.6301 62.3192 63.2993C60.4919 64.3949 60.3978 64.5487 61.3665 64.853C63.5243 65.532 63.1566 68.227 60.9057 68.227C59.6422 68.227 59.095 66.8321 59.8739 65.5971C60.2054 65.0703 60.342 64.6399 60.177 64.6399C59.9489 64.6399 55.8268 66.8572 54.887 67.4849C54.7738 67.5608 56.1257 70.1092 57.1172 71.6895C57.1627 71.7623 58.7898 70.7871 60.733 69.5224C62.6756 68.2582 65.0371 66.9715 65.981 66.663C67.6521 66.1162 67.6769 66.0665 66.9456 64.7306C65.6914 62.4379 65.4199 62.1689 64.0834 61.8947C63.1819 61.7102 61.7875 62.2268 59.4338 63.6186ZM79.0874 62.3339C79.0874 62.7566 78.8547 63.1025 78.5702 63.1025C77.8022 63.1025 77.9444 64.6055 78.7921 65.4449C79.6393 66.2848 81.1562 66.4257 81.1562 65.6647C81.1562 65.3829 81.5053 65.1523 81.932 65.1523C82.3629 65.1523 82.7078 64.6967 82.7078 64.1274C82.7078 63.5581 82.3629 63.1025 81.932 63.1025C81.5053 63.1025 81.1562 62.7566 81.1562 62.3339C81.1562 61.907 80.6964 61.5652 80.1218 61.5652C79.5472 61.5652 79.0874 61.907 79.0874 62.3339ZM104.529 63.9993C104.664 64.6942 105.224 64.8961 107.016 64.8961C108.808 64.8961 109.369 64.6942 109.504 63.9993C109.651 63.2389 109.273 63.1025 107.016 63.1025C104.76 63.1025 104.381 63.2389 104.529 63.9993ZM60.2959 65.4941C59.5382 66.2448 59.9742 67.7145 60.9548 67.7145C62.2753 67.7145 62.7832 66.8326 62.0011 65.8984C61.3179 65.0831 60.8276 64.9668 60.2959 65.4941ZM63.0542 68.7922C59.1058 70.9178 57.1731 72.3075 57.5904 72.7211C57.7182 72.8471 58.5923 72.4069 59.5325 71.7418C60.4728 71.0771 62.8716 69.6741 64.8633 68.6246C66.8551 67.5751 68.1357 66.7137 67.709 66.7101C67.2823 66.7071 65.1876 67.6438 63.0542 68.7922ZM62.9549 70.3013C62.1485 70.7671 62.1434 70.9567 62.8871 72.7195C63.3309 73.7716 63.9055 75.1818 64.163 75.8531C64.6011 76.9933 64.6937 77.0184 65.5647 76.2374C66.0777 75.7773 66.6446 75.4011 66.8246 75.4011C67.0046 75.4011 66.1988 76.282 65.034 77.3587L62.9161 79.3157L64.1486 81.4746C65.1287 83.1908 65.5936 83.5689 66.416 83.3194C66.9849 83.1462 68.0322 82.8766 68.7434 82.7203C69.4545 82.5635 70.8091 81.6821 71.7535 80.7613L73.4706 79.0876L72.3602 76.9318C71.3827 75.0327 71.0837 74.8093 69.8497 75.0537C68.6218 75.2971 68.1983 74.9881 66.4139 72.5479C64.2106 69.5347 64.2437 69.5562 62.9549 70.3013ZM66.778 77.5534C64.9792 79.3357 67.5611 82.6481 69.5037 81.0508C71.047 79.782 70.1631 76.9385 68.2262 76.9385C67.771 76.9385 67.1194 77.2152 66.778 77.5534ZM71.3294 78.9882C71.3294 79.2701 71.5621 79.5007 71.8466 79.5007C72.1311 79.5007 72.3638 79.2701 72.3638 78.9882C72.3638 78.7064 72.1311 78.4758 71.8466 78.4758C71.5621 78.4758 71.3294 78.7064 71.3294 78.9882ZM64.0886 79.5007C64.0886 79.7825 64.3213 80.0131 64.6058 80.0131C64.8902 80.0131 65.123 79.7825 65.123 79.5007C65.123 79.2188 64.8902 78.9882 64.6058 78.9882C64.3213 78.9882 64.0886 79.2188 64.0886 79.5007ZM65.6402 82.0629C65.6402 82.3447 65.8729 82.5753 66.1574 82.5753C66.4418 82.5753 66.6746 82.3447 66.6746 82.0629C66.6746 81.781 66.4418 81.5504 66.1574 81.5504C65.8729 81.5504 65.6402 81.781 65.6402 82.0629ZM75.0791 81.8866C74.7238 82.0306 74.4326 82.4749 74.4326 82.8741C74.4326 83.4874 77.4091 83.6002 93.6068 83.6002C111.59 83.6002 112.771 83.5443 112.607 82.7034C112.445 81.8717 111.106 81.8 94.0796 81.7154C83.9848 81.6657 75.435 81.7426 75.0791 81.8866ZM57.3618 93.8152C50.7649 95.8035 47.0525 101.92 48.5896 108.268C49.4538 111.837 53.4497 116.022 56.8477 116.918C66.2634 119.401 74.6607 110.701 71.6154 101.618C69.7276 95.9864 62.779 92.1826 57.3618 93.8152ZM110.895 93.8157C105.327 95.1588 101.664 99.7488 101.667 105.379C101.672 114.749 111.891 120.401 119.933 115.479C124.638 112.6 126.832 106.325 124.893 101.295C123.655 98.0828 120.413 95.0512 117.208 94.1078C114.394 93.2797 113.323 93.23 110.895 93.8157ZM56.4852 99.4346C51.3675 102.62 52.571 110.742 58.3911 112.295C65.499 114.191 70.4739 105.334 65.1426 100.273C63.0635 98.2996 58.9486 97.9009 56.4852 99.4346ZM109.757 99.4346C103.857 103.107 106.51 112.468 113.451 112.468C120.124 112.468 123.23 104.844 118.418 100.277C116.335 98.2996 112.222 97.8999 109.757 99.4346Z" fill="#07476A"/>
</svg>
